<svg width="100" height="98" viewBox="0 0 100 98" fill="none" xmlns="http://www.w3.org/2000/svg">
    <path d="M49.5869 85.984H3.31985C1.4863 85.984 0 87.4703 0 89.3039V92.6237C0 94.4573 1.4863 95.9435 3.31985 95.9435H49.5869C51.4201 95.9435 52.9067 94.4573 52.9067 92.6237V89.3039C52.9067 87.4703 51.4204 85.984 49.5869 85.984Z" fill="black"/>
    <path d="M3.31985 75.0285H43.3525C45.1858 75.0285 46.6724 73.5422 46.6724 71.7087V68.3888C46.6724 66.5553 45.1858 65.069 43.3525 65.069H3.31985C1.4863 65.069 0 66.5553 0 68.3888V71.7087C0 73.5422 1.4863 75.0285 3.31985 75.0285Z" fill="black"/>
    <path d="M3.31985 54.1135H37.1175C38.9508 54.1135 40.4374 52.6272 40.4374 50.7937V47.4738C40.4374 45.6403 38.9508 44.154 37.1175 44.154H3.31985C1.4863 44.154 0 45.6403 0 47.4738V50.7937C0 52.6272 1.4863 54.1135 3.31985 54.1135Z" fill="black"/>
    <path d="M3.31985 30.8746H30.8829C32.7161 30.8746 34.2027 29.3883 34.2027 27.5547V24.2349C34.2027 22.4013 32.7161 20.915 30.8829 20.915H3.31985C1.4863 20.915 0 22.4013 0 24.2349V27.5547C0 29.3883 1.4863 30.8746 3.31985 30.8746Z" fill="black"/>
    <path d="M3.31985 9.95954H24.6479C26.4811 9.95954 27.9677 8.47324 27.9677 6.63969V3.31985C27.9677 1.4863 26.4811 0 24.6479 0H3.31985C1.4863 0 0 1.4863 0 3.31985V6.63969C0 8.47324 1.4863 9.95954 3.31985 9.95954Z" fill="black"/>
    <path d="M99.0277 70.7595L96.6806 68.4121C96.0581 67.7896 95.2135 67.4397 94.3331 67.4397C93.4527 67.4397 92.6084 67.7896 91.9856 68.4121L80.5673 79.83V4.97976C80.5673 3.14621 79.0811 1.65991 77.2475 1.65991H73.9277C72.0944 1.65991 70.6078 3.14621 70.6078 4.97976V79.8297L59.1895 68.4117C58.5667 67.7889 57.7225 67.4394 56.8421 67.4394C55.9616 67.4394 55.1171 67.7893 54.4946 68.4117L52.1475 70.7592C50.8511 72.0556 50.8511 74.1577 52.1475 75.4541L73.2401 96.5471C73.8629 97.1696 74.7072 97.5195 75.5876 97.5195C76.468 97.5195 77.3122 97.1696 77.935 96.5471L99.0277 75.4541C100.324 74.1577 100.324 72.0559 99.0277 70.7595Z" fill="black"/>
</svg>
