<svg width="100" height="98" viewBox="0 0 100 98" fill="none" xmlns="http://www.w3.org/2000/svg">
    <path d="M52.9067 6.63969V3.31985C52.9067 1.4863 51.4204 0 49.5869 0H3.31985C1.4863 0 0 1.4863 0 3.31985V6.63969C0 8.47324 1.4863 9.95954 3.31985 9.95954H49.5869C51.4204 9.95954 52.9067 8.47324 52.9067 6.63969Z" fill="black"/>
    <path d="M43.3525 20.915H3.31985C1.4863 20.915 0 22.4013 0 24.2349V27.5547C0 29.3883 1.4863 30.8746 3.31985 30.8746H43.3525C45.1861 30.8746 46.6724 29.3883 46.6724 27.5547V24.2349C46.6724 22.4013 45.1861 20.915 43.3525 20.915Z" fill="black"/>
    <path d="M37.1175 41.8301H3.31985C1.4863 41.8301 0 43.3164 0 45.1499V48.4698C0 50.3033 1.4863 51.7896 3.31985 51.7896H37.1175C38.9511 51.7896 40.4374 50.3033 40.4374 48.4698V45.1499C40.4374 43.3164 38.9511 41.8301 37.1175 41.8301Z" fill="black"/>
    <path d="M30.8829 65.069H3.31985C1.4863 65.069 0 66.5553 0 68.3888V71.7087C0 73.5422 1.4863 75.0285 3.31985 75.0285H30.8829C32.7161 75.0285 34.2027 73.5422 34.2027 71.7087V68.3888C34.2027 66.5553 32.7164 65.069 30.8829 65.069Z" fill="black"/>
    <path d="M24.6479 85.984H3.31985C1.4863 85.984 0 87.4703 0 89.3039V92.6237C0 94.4573 1.4863 95.9436 3.31985 95.9436H24.6479C26.4811 95.9436 27.9677 94.4573 27.9677 92.6237V89.3039C27.9677 87.4703 26.4814 85.984 24.6479 85.984Z" fill="black"/>
    <path d="M99.0277 70.7595L96.6803 68.4121C96.0578 67.7896 95.2132 67.4397 94.3328 67.4397C93.4524 67.4397 92.6078 67.7896 91.985 68.4121L80.5671 79.83V4.97976C80.5671 3.14621 79.0808 1.65991 77.2472 1.65991H73.9274C72.0938 1.65991 70.6075 3.14621 70.6075 4.97976V79.8297L59.1896 68.4117C58.5668 67.7893 57.7225 67.4394 56.8421 67.4394C55.9617 67.4394 55.1171 67.7893 54.4946 68.4117L52.1469 70.7592C50.8508 72.0556 50.8508 74.1577 52.1469 75.4541L73.2398 96.5471C73.8882 97.1955 74.7377 97.5195 75.5873 97.5195C76.4368 97.5195 77.2867 97.1955 77.9348 96.5471L99.0277 75.4541C100.324 74.1577 100.324 72.0556 99.0277 70.7595Z" fill="black"/>
</svg>
