<svg width="100" height="92" viewBox="0 0 100 92" fill="none" xmlns="http://www.w3.org/2000/svg">
    <path d="M31.0042 24.7319L36.919 18.817L18.4595 0.357529L0 18.817L5.91482 24.7319L14.2779 16.3687V75.6257L5.91482 67.2625L0 73.1774L18.4595 91.6369L36.919 73.1774L31.0042 67.2625L22.6411 75.6257V16.3687L31.0042 24.7319Z" fill="black" fill-opacity="0.4"/>
    <path d="M100 0H45.6396V8.36313H100V0Z" fill="black" fill-opacity="0.4"/>
    <path d="M100 41.8156H45.6396V50.1788H100V41.8156Z" fill="black" fill-opacity="0.4"/>
    <path d="M83.2737 20.9078H45.6396V29.2709H83.2737V20.9078Z" fill="black" fill-opacity="0.4"/>
    <path d="M83.2737 62.7235H45.6396V71.0866H83.2737V62.7235Z" fill="black" fill-opacity="0.4"/>
    <path d="M100 83.6313H45.6396V91.9944H100V83.6313Z" fill="black" fill-opacity="0.4"/>
</svg>
